<?xml version="1.0" encoding="utf-8"?>
<!-- Generator: Adobe Illustrator 24.0.1, SVG Export Plug-In . SVG Version: 6.00 Build 0)  -->
<svg version="1.1" id="Layer_1" xmlns="http://www.w3.org/2000/svg" xmlns:xlink="http://www.w3.org/1999/xlink" x="0px" y="0px"
	 viewBox="0 0 738 176" style="enable-background:new 0 0 738 176;" xml:space="preserve">
<style type="text/css">
	.st0{fill:#27A3A0;}
	.st1{fill:#B1C8D2;}
	.st2{fill:#3F5D7D;}
</style>
<g>
	<g>
		<path class="st0" d="M90.1,135.6H41.4V97.7H3.5V49h37.8V11.1h48.8v48.8H52.3v26.9h53c17.9,0,32.4-14.5,32.4-32.4
			c0-17.9-14.5-32.4-32.4-32.4h-8.5V11.1h8.5c23.9,0,43.3,19.4,43.3,43.3s-19.4,43.3-43.3,43.3H90.1V135.6z M52.3,124.6h26.9V97.7
			H52.3V124.6z M14.5,86.8h26.9V59.9H14.5V86.8z M52.3,49h26.9V22.1H52.3V49z"/>
		<polygon class="st1" points="178,98 179.4,142.7 180.7,98 180.7,48.2 179.4,3.5 178,48.2 		"/>
	</g>
	<g>
		<g>
			<path class="st2" d="M245.8,29.2c0,5.3-1.7,9.3-4.9,12.1c-3.3,2.8-8,4.2-14.1,4.2h-4.5V63h-10.4V14h15.7c5.9,0,10.5,1.3,13.6,3.8
				C244.2,20.4,245.8,24.2,245.8,29.2z M222.3,37h3.4c3.2,0,5.6-0.6,7.2-1.9c1.6-1.3,2.4-3.1,2.4-5.5c0-2.4-0.7-4.2-2-5.4
				c-1.3-1.2-3.4-1.7-6.2-1.7h-4.7V37z"/>
			<path class="st2" d="M265.4,44.2V63H255V14h14.3c6.7,0,11.6,1.2,14.8,3.6c3.2,2.4,4.8,6.1,4.8,11c0,2.9-0.8,5.5-2.4,7.7
				c-1.6,2.3-3.8,4-6.7,5.3c7.4,11,12.2,18.1,14.4,21.4h-11.5l-11.7-18.8H265.4z M265.4,35.7h3.4c3.3,0,5.7-0.5,7.3-1.6
				c1.6-1.1,2.3-2.8,2.3-5.2c0-2.3-0.8-4-2.4-5c-1.6-1-4.1-1.5-7.4-1.5h-3.1L265.4,35.7L265.4,35.7z"/>
			<path class="st2" d="M328.6,63h-28.2V14h28.2v8.5h-17.8v10.8h16.6v8.5h-16.6v12.6h17.8V63z"/>
			<path class="st2" d="M359.5,63l-11.8-38.4h-0.3c0.4,7.8,0.6,13,0.6,15.7V63h-9.3V14h14.1l11.6,37.5h0.2L377,14h14.1v49h-9.7V39.8
				c0-1.1,0-2.4,0.1-3.8c0-1.4,0.2-5.2,0.5-11.4h-0.3L369.1,63H359.5z"/>
			<path class="st2" d="M403.5,63V14h10.4v49H403.5z"/>
			<path class="st2" d="M454.5,63h-28.2V14h28.2v8.5h-17.8v10.8h16.6v8.5h-16.6v12.6h17.8V63z"/>
			<path class="st2" d="M475.1,44.2V63h-10.4V14H479c6.7,0,11.6,1.2,14.8,3.6c3.2,2.4,4.8,6.1,4.8,11c0,2.9-0.8,5.5-2.4,7.7
				c-1.6,2.3-3.8,4-6.7,5.3c7.4,11,12.2,18.1,14.4,21.4h-11.5l-11.7-18.8H475.1z M475.1,35.7h3.4c3.3,0,5.7-0.5,7.3-1.6
				c1.6-1.1,2.3-2.8,2.3-5.2c0-2.3-0.8-4-2.4-5c-1.6-1-4.1-1.5-7.4-1.5h-3.1L475.1,35.7L475.1,35.7z"/>
			<path class="st2" d="M252.1,131.6h-10.4v-21.2h-19.4v21.2h-10.4v-49h10.4v19.2h19.4V82.6h10.4V131.6z"/>
			<path class="st2" d="M292.7,131.6h-28.2v-49h28.2v8.5h-17.8v10.8h16.6v8.5h-16.6V123h17.8V131.6z"/>
			<path class="st2" d="M332.9,131.6l-3.6-11.7h-17.9l-3.6,11.7h-11.2L314,82.4h12.7l17.4,49.2H332.9z M326.8,111.2
				c-3.3-10.6-5.1-16.5-5.5-17.9c-0.4-1.4-0.7-2.5-0.9-3.3c-0.7,2.9-2.8,9.9-6.3,21.2C314.1,111.2,326.8,111.2,326.8,111.2z"/>
			<path class="st2" d="M350.2,131.6v-49h10.4V123h19.9v8.6H350.2z"/>
			<path class="st2" d="M407.9,131.6h-10.4V91.2h-13.3v-8.7h37v8.7h-13.3L407.9,131.6L407.9,131.6z"/>
			<path class="st2" d="M468.9,131.6h-10.4v-21.2h-19.4v21.2h-10.4v-49h10.4v19.2h19.4V82.6h10.4L468.9,131.6L468.9,131.6z"/>
			<path class="st2" d="M517.7,104.1h19.4v25.4c-3.1,1-6.1,1.7-8.9,2.2c-2.8,0.4-5.6,0.6-8.5,0.6c-7.4,0-13-2.2-16.9-6.5
				c-3.9-4.3-5.9-10.6-5.9-18.7c0-7.9,2.3-14.1,6.8-18.5c4.5-4.4,10.8-6.6,18.8-6.6c5,0,9.9,1,14.5,3l-3.4,8.3
				c-3.6-1.8-7.3-2.7-11.2-2.7c-4.5,0-8.1,1.5-10.8,4.5c-2.7,3-4.1,7.1-4.1,12.2c0,5.3,1.1,9.4,3.3,12.2c2.2,2.8,5.3,4.2,9.5,4.2
				c2.2,0,4.4-0.2,6.6-0.7v-10.2h-9.3L517.7,104.1L517.7,104.1z"/>
			<path class="st2" d="M559.2,112.8v18.8h-10.4v-49h14.3c6.7,0,11.6,1.2,14.8,3.6c3.2,2.4,4.8,6.1,4.8,11c0,2.9-0.8,5.5-2.4,7.7
				c-1.6,2.3-3.8,4-6.7,5.3c7.4,11,12.2,18.1,14.4,21.4h-11.5l-11.7-18.8H559.2z M559.2,104.4h3.4c3.3,0,5.7-0.5,7.3-1.6
				c1.6-1.1,2.3-2.8,2.3-5.2c0-2.3-0.8-4-2.4-5c-1.6-1-4.1-1.5-7.4-1.5h-3.1V104.4z"/>
			<path class="st2" d="M638.6,107c0,8.1-2,14.3-6,18.7c-4,4.4-9.8,6.5-17.3,6.5c-7.5,0-13.3-2.2-17.3-6.5c-4-4.4-6-10.6-6-18.8
				s2-14.4,6-18.7c4-4.3,9.8-6.5,17.3-6.5s13.3,2.2,17.3,6.5C636.6,92.7,638.6,98.9,638.6,107z M602.9,107c0,5.5,1,9.6,3.1,12.4
				c2.1,2.8,5.2,4.2,9.3,4.2c8.3,0,12.4-5.5,12.4-16.5c0-11-4.1-16.6-12.4-16.6c-4.1,0-7.2,1.4-9.4,4.2
				C603.9,97.4,602.9,101.6,602.9,107z"/>
			<path class="st2" d="M688.7,82.6v31.7c0,3.6-0.8,6.8-2.4,9.5s-4,4.8-7,6.3c-3.1,1.5-6.7,2.2-10.9,2.2c-6.3,0-11.2-1.6-14.7-4.8
				c-3.5-3.2-5.2-7.7-5.2-13.3V82.6h10.4v30c0,3.8,0.8,6.5,2.3,8.3c1.5,1.8,4,2.6,7.5,2.6c3.4,0,5.9-0.9,7.4-2.7
				c1.5-1.8,2.3-4.6,2.3-8.4V82.6H688.7z"/>
			<path class="st2" d="M734.5,97.9c0,5.3-1.7,9.3-4.9,12.1c-3.3,2.8-8,4.2-14.1,4.2H711v17.4h-10.4v-49h15.7
				c5.9,0,10.5,1.3,13.6,3.8C733,89,734.5,92.8,734.5,97.9z M711.1,105.7h3.4c3.2,0,5.6-0.6,7.2-1.9c1.6-1.3,2.4-3.1,2.4-5.5
				c0-2.4-0.7-4.2-2-5.4c-1.3-1.2-3.4-1.7-6.2-1.7h-4.7V105.7z"/>
		</g>
	</g>
	<g>
		<path class="st2" d="M16.5,160.5c0,2.6-0.7,4.6-2.2,6c-1.5,1.4-3.6,2.1-6.3,2.1H3.5v-15.9h4.9c2.5,0,4.5,0.7,5.9,2
			C15.8,156.1,16.5,158,16.5,160.5z M13.7,160.6c0-3.8-1.8-5.7-5.4-5.7H6.1v11.6H8C11.8,166.4,13.7,164.5,13.7,160.6z"/>
		<path class="st2" d="M30,168.6h-9v-15.9h9v2.2h-6.4v4.3h6v2.2h-6v5H30V168.6z"/>
		<path class="st2" d="M34.6,168.6v-15.9h2.6v13.7H44v2.2H34.6z"/>
		<path class="st2" d="M47.8,168.6v-15.9h2.6v15.9H47.8z"/>
		<path class="st2" d="M64.8,152.7h2.7L62,168.6h-2.7l-5.6-15.9h2.7l3.3,9.9c0.2,0.5,0.4,1.1,0.6,1.8s0.3,1.3,0.4,1.7
			c0.1-0.6,0.2-1.2,0.4-1.9c0.2-0.7,0.4-1.3,0.5-1.6L64.8,152.7z"/>
		<path class="st2" d="M79.8,168.6h-9v-15.9h9v2.2h-6.4v4.3h6v2.2h-6v5h6.4V168.6z"/>
		<path class="st2" d="M86.9,162.3v6.4h-2.6v-15.9h4.5c2.1,0,3.6,0.4,4.6,1.2c1,0.8,1.5,1.9,1.5,3.5c0,2-1,3.4-3.1,4.2l4.5,7.1h-3
			l-3.8-6.4H86.9z M86.9,160.1h1.8c1.2,0,2.1-0.2,2.6-0.7c0.5-0.5,0.8-1.1,0.8-2c0-0.9-0.3-1.5-0.9-1.9c-0.6-0.4-1.5-0.6-2.7-0.6
			h-1.7V160.1z"/>
		<path class="st2" d="M99.7,168.6v-15.9h2.6v15.9H99.7z"/>
		<path class="st2" d="M120.9,168.6h-3.2l-7.8-12.7h-0.1l0.1,0.7c0.1,1.4,0.2,2.6,0.2,3.7v8.3h-2.4v-15.9h3.2l7.8,12.6h0.1
			c0-0.2,0-0.8-0.1-1.8c0-1.1-0.1-1.9-0.1-2.5v-8.4h2.4L120.9,168.6L120.9,168.6z"/>
		<path class="st2" d="M132.8,160h5.9v8c-1,0.3-1.9,0.5-2.8,0.7c-0.9,0.1-1.8,0.2-2.9,0.2c-2.4,0-4.3-0.7-5.6-2.1
			c-1.3-1.4-2-3.4-2-6c0-2.6,0.7-4.6,2.2-6c1.5-1.5,3.5-2.2,6.1-2.2c1.7,0,3.2,0.3,4.7,1l-0.9,2.2c-1.3-0.6-2.6-0.9-3.9-0.9
			c-1.7,0-3,0.5-4,1.6c-1,1.1-1.5,2.5-1.5,4.4c0,2,0.4,3.4,1.3,4.4s2.2,1.5,3.8,1.5c0.8,0,1.7-0.1,2.7-0.3v-4.1h-3.3L132.8,160
			L132.8,160z"/>
		<path class="st2" d="M164.7,160.6c0,1.9-0.4,3.6-1.1,4.9c-0.7,1.3-1.8,2.3-3.2,2.8l3.8,4.1h-3.5l-3-3.6h-0.4
			c-2.4,0-4.3-0.7-5.5-2.1c-1.3-1.4-1.9-3.5-1.9-6.1c0-2.6,0.7-4.7,1.9-6.1c1.3-1.4,3.1-2.1,5.6-2.1c2.4,0,4.2,0.7,5.5,2.1
			C164,156,164.7,158,164.7,160.6z M152.5,160.6c0,2,0.4,3.4,1.2,4.5c0.8,1,2,1.5,3.5,1.5c1.5,0,2.7-0.5,3.5-1.5
			c0.8-1,1.2-2.5,1.2-4.5c0-2-0.4-3.4-1.2-4.4s-1.9-1.5-3.5-1.5c-1.6,0-2.7,0.5-3.5,1.5C152.9,157.2,152.5,158.7,152.5,160.6z"/>
		<path class="st2" d="M181.7,152.7V163c0,1.2-0.2,2.2-0.8,3.1s-1.2,1.6-2.2,2c-1,0.5-2.1,0.7-3.4,0.7c-2,0-3.5-0.5-4.6-1.6
			c-1.1-1-1.6-2.5-1.6-4.3v-10.3h2.6v10.1c0,1.3,0.3,2.3,0.9,2.9c0.6,0.6,1.5,0.9,2.8,0.9c2.5,0,3.7-1.3,3.7-3.9v-10.1L181.7,152.7
			L181.7,152.7z"/>
		<path class="st2" d="M196.8,168.6l-1.6-4.4h-6.1l-1.6,4.4h-2.7l6-16h2.8l6,16H196.8z M194.5,161.9l-1.5-4.3
			c-0.1-0.3-0.3-0.8-0.5-1.4c-0.2-0.6-0.3-1.1-0.4-1.4c-0.2,0.9-0.5,1.9-0.9,2.9l-1.4,4.2H194.5z"/>
		<path class="st2" d="M202.8,168.6v-15.9h2.6v13.7h6.8v2.2H202.8z"/>
		<path class="st2" d="M216,168.6v-15.9h2.6v15.9H216z"/>
		<path class="st2" d="M229.4,168.6h-2.6v-13.7h-4.7v-2.2h12v2.2h-4.7L229.4,168.6L229.4,168.6z"/>
		<path class="st2" d="M242.2,160l3.8-7.3h2.8l-5.3,9.8v6.2h-2.6v-6.1l-5.3-9.8h2.8L242.2,160z"/>
		<path class="st2" d="M265.7,154.7c-1.5,0-2.7,0.5-3.5,1.6c-0.9,1.1-1.3,2.5-1.3,4.4c0,2,0.4,3.4,1.2,4.4c0.8,1,2,1.5,3.6,1.5
			c0.7,0,1.3-0.1,2-0.2c0.6-0.1,1.3-0.3,2-0.5v2.2c-1.2,0.5-2.7,0.7-4.3,0.7c-2.3,0-4.1-0.7-5.4-2.1c-1.2-1.4-1.9-3.4-1.9-6.1
			c0-1.7,0.3-3.1,0.9-4.3c0.6-1.2,1.5-2.2,2.6-2.9c1.1-0.7,2.5-1,4-1c1.6,0,3.1,0.3,4.5,1l-0.9,2.2c-0.5-0.3-1.1-0.5-1.7-0.7
			C267,154.8,266.3,154.7,265.7,154.7z"/>
		<path class="st2" d="M284.1,168.6l-1.6-4.4h-6.1l-1.6,4.4h-2.7l6-16h2.8l6,16H284.1z M281.8,161.9l-1.5-4.3
			c-0.1-0.3-0.3-0.8-0.5-1.4s-0.3-1.1-0.4-1.4c-0.2,0.9-0.5,1.9-0.9,2.9l-1.4,4.2H281.8z"/>
		<path class="st2" d="M292.7,162.3v6.4h-2.6v-15.9h4.5c2.1,0,3.6,0.4,4.6,1.2c1,0.8,1.5,1.9,1.5,3.5c0,2-1,3.4-3.1,4.2l4.5,7.1h-3
			l-3.8-6.4H292.7z M292.7,160.1h1.8c1.2,0,2.1-0.2,2.6-0.7c0.5-0.5,0.8-1.1,0.8-2c0-0.9-0.3-1.5-0.9-1.9c-0.6-0.4-1.5-0.6-2.7-0.6
			h-1.7L292.7,160.1L292.7,160.1z"/>
		<path class="st2" d="M314.5,168.6h-9v-15.9h9v2.2H308v4.3h6v2.2h-6v5h6.4V168.6z"/>
		<path class="st2" d="M331.4,168.6h-2.6v-13.7h-4.7v-2.2h12v2.2h-4.7L331.4,168.6L331.4,168.6z"/>
		<path class="st2" d="M352.3,168.6h-2.6v-7.2h-7.4v7.2h-2.6v-15.9h2.6v6.5h7.4v-6.5h2.6V168.6z"/>
		<path class="st2" d="M360.2,162.3v6.4h-2.6v-15.9h4.5c2.1,0,3.6,0.4,4.6,1.2c1,0.8,1.5,1.9,1.5,3.5c0,2-1,3.4-3.1,4.2l4.5,7.1h-3
			l-3.8-6.4H360.2z M360.2,160.1h1.8c1.2,0,2.1-0.2,2.6-0.7c0.5-0.5,0.8-1.1,0.8-2c0-0.9-0.3-1.5-0.9-1.9c-0.6-0.4-1.5-0.6-2.7-0.6
			h-1.7L360.2,160.1L360.2,160.1z"/>
		<path class="st2" d="M387.1,160.6c0,2.6-0.7,4.6-1.9,6c-1.3,1.4-3.1,2.2-5.5,2.2c-2.4,0-4.3-0.7-5.5-2.1c-1.3-1.4-1.9-3.5-1.9-6.1
			c0-2.6,0.7-4.7,1.9-6.1c1.3-1.4,3.1-2.1,5.6-2.1c2.4,0,4.2,0.7,5.5,2.1C386.5,156,387.1,158,387.1,160.6z M374.9,160.6
			c0,2,0.4,3.4,1.2,4.5c0.8,1,2,1.5,3.5,1.5c1.5,0,2.7-0.5,3.5-1.5c0.8-1,1.2-2.5,1.2-4.5c0-2-0.4-3.4-1.2-4.4
			c-0.8-1-1.9-1.5-3.5-1.5c-1.6,0-2.7,0.5-3.5,1.5C375.3,157.2,374.9,158.7,374.9,160.6z"/>
		<path class="st2" d="M404.1,152.7V163c0,1.2-0.2,2.2-0.8,3.1s-1.2,1.6-2.2,2c-1,0.5-2.1,0.7-3.4,0.7c-2,0-3.5-0.5-4.6-1.6
			c-1.1-1-1.6-2.5-1.6-4.3v-10.3h2.6v10.1c0,1.3,0.3,2.3,0.9,2.9c0.6,0.6,1.5,0.9,2.8,0.9c2.5,0,3.7-1.3,3.7-3.9v-10.1L404.1,152.7
			L404.1,152.7z"/>
		<path class="st2" d="M415.8,160h5.9v8c-1,0.3-1.9,0.5-2.8,0.7c-0.9,0.1-1.8,0.2-2.9,0.2c-2.4,0-4.3-0.7-5.6-2.1
			c-1.3-1.4-2-3.4-2-6c0-2.6,0.7-4.6,2.2-6c1.5-1.5,3.5-2.2,6.1-2.2c1.7,0,3.2,0.3,4.7,1l-0.9,2.2c-1.3-0.6-2.6-0.9-3.9-0.9
			c-1.7,0-3,0.5-4,1.6c-1,1.1-1.5,2.5-1.5,4.4c0,2,0.4,3.4,1.3,4.4c0.9,1,2.2,1.5,3.8,1.5c0.8,0,1.7-0.1,2.7-0.3v-4.1h-3.3
			L415.8,160L415.8,160z"/>
		<path class="st2" d="M439.2,168.6h-2.6v-7.2h-7.4v7.2h-2.6v-15.9h2.6v6.5h7.4v-6.5h2.6V168.6z"/>
		<path class="st2" d="M451.5,168.6v-15.9h2.6v15.9H451.5z"/>
		<path class="st2" d="M472.7,168.6h-3.2l-7.8-12.7h-0.1l0.1,0.7c0.1,1.4,0.2,2.6,0.2,3.7v8.3h-2.4v-15.9h3.2l7.8,12.6h0.1
			c0-0.2,0-0.8-0.1-1.8c0-1.1-0.1-1.9-0.1-2.5v-8.4h2.4L472.7,168.6L472.7,168.6z"/>
		<path class="st2" d="M491.3,168.6h-3.2l-7.8-12.7h-0.1l0.1,0.7c0.1,1.4,0.2,2.6,0.2,3.7v8.3H478v-15.9h3.2l7.8,12.6h0.1
			c0-0.2,0-0.8-0.1-1.8c0-1.1-0.1-1.9-0.1-2.5v-8.4h2.4L491.3,168.6L491.3,168.6z"/>
		<path class="st2" d="M510.7,160.6c0,2.6-0.7,4.6-1.9,6c-1.3,1.4-3.1,2.2-5.5,2.2c-2.4,0-4.3-0.7-5.5-2.1c-1.3-1.4-1.9-3.5-1.9-6.1
			c0-2.6,0.7-4.7,1.9-6.1c1.3-1.4,3.1-2.1,5.6-2.1c2.4,0,4.2,0.7,5.5,2.1C510.1,156,510.7,158,510.7,160.6z M498.6,160.6
			c0,2,0.4,3.4,1.2,4.5c0.8,1,2,1.5,3.5,1.5c1.5,0,2.7-0.5,3.5-1.5c0.8-1,1.2-2.5,1.2-4.5c0-2-0.4-3.4-1.2-4.4s-1.9-1.5-3.5-1.5
			c-1.6,0-2.7,0.5-3.5,1.5C499,157.2,498.6,158.7,498.6,160.6z"/>
		<path class="st2" d="M524.4,152.7h2.7l-5.6,15.9h-2.7l-5.6-15.9h2.7l3.3,9.9c0.2,0.5,0.4,1.1,0.6,1.8s0.3,1.3,0.4,1.7
			c0.1-0.6,0.2-1.2,0.4-1.9c0.2-0.7,0.4-1.3,0.5-1.6L524.4,152.7z"/>
		<path class="st2" d="M540.2,168.6l-1.6-4.4h-6.1l-1.6,4.4h-2.7l6-16h2.8l6,16H540.2z M537.9,161.9l-1.5-4.3
			c-0.1-0.3-0.3-0.8-0.5-1.4s-0.3-1.1-0.4-1.4c-0.2,0.9-0.5,1.9-0.9,2.9l-1.4,4.2H537.9z"/>
		<path class="st2" d="M551.7,168.6h-2.6v-13.7h-4.7v-2.2h12v2.2h-4.7L551.7,168.6L551.7,168.6z"/>
		<path class="st2" d="M559.9,168.6v-15.9h2.6v15.9H559.9z"/>
		<path class="st2" d="M576.9,152.7h2.7l-5.6,15.9h-2.7l-5.6-15.9h2.7l3.3,9.9c0.2,0.5,0.4,1.1,0.6,1.8s0.3,1.3,0.4,1.7
			c0.1-0.6,0.2-1.2,0.4-1.9c0.2-0.7,0.4-1.3,0.5-1.6L576.9,152.7z"/>
		<path class="st2" d="M591.9,168.6h-9v-15.9h9v2.2h-6.4v4.3h6v2.2h-6v5h6.4V168.6z"/>
		<path class="st2" d="M612.5,164.3c0,1.4-0.5,2.5-1.5,3.3c-1,0.8-2.4,1.2-4.2,1.2s-3.3-0.3-4.4-0.8v-2.5c0.7,0.3,1.5,0.6,2.3,0.8
			c0.8,0.2,1.6,0.3,2.3,0.3c1,0,1.8-0.2,2.3-0.6c0.5-0.4,0.7-0.9,0.7-1.6c0-0.6-0.2-1.1-0.7-1.5c-0.5-0.4-1.4-0.9-2.8-1.5
			c-1.5-0.6-2.5-1.3-3.1-2c-0.6-0.8-0.9-1.7-0.9-2.7c0-1.3,0.5-2.4,1.4-3.1c0.9-0.8,2.2-1.1,3.8-1.1c1.5,0,3,0.3,4.6,1l-0.8,2.1
			c-1.4-0.6-2.7-0.9-3.8-0.9c-0.8,0-1.5,0.2-1.9,0.5c-0.4,0.4-0.7,0.8-0.7,1.5c0,0.4,0.1,0.8,0.3,1.1c0.2,0.3,0.5,0.6,0.9,0.8
			c0.4,0.3,1.1,0.6,2.2,1c1.2,0.5,2,0.9,2.6,1.4c0.5,0.4,0.9,0.9,1.2,1.4C612.4,162.9,612.5,163.6,612.5,164.3z"/>
		<path class="st2" d="M630.9,160.6c0,2.6-0.7,4.6-2,6s-3.1,2.2-5.5,2.2c-2.4,0-4.3-0.7-5.5-2.1c-1.3-1.4-1.9-3.5-1.9-6.1
			c0-2.6,0.7-4.7,2-6.1c1.3-1.4,3.1-2.1,5.6-2.1c2.4,0,4.2,0.7,5.5,2.1C630.2,156,630.9,158,630.9,160.6z M618.7,160.6
			c0,2,0.4,3.4,1.2,4.5c0.8,1,2,1.5,3.5,1.5c1.5,0,2.7-0.5,3.5-1.5c0.8-1,1.2-2.5,1.2-4.5c0-2-0.4-3.4-1.2-4.4c-0.8-1-2-1.5-3.5-1.5
			c-1.6,0-2.7,0.5-3.5,1.5C619.1,157.2,618.7,158.7,618.7,160.6z"/>
		<path class="st2" d="M635.4,168.6v-15.9h2.6v13.7h6.8v2.2H635.4z"/>
		<path class="st2" d="M661.1,152.7V163c0,1.2-0.2,2.2-0.8,3.1s-1.2,1.6-2.2,2c-1,0.5-2.1,0.7-3.4,0.7c-2,0-3.5-0.5-4.6-1.6
			c-1.1-1-1.6-2.5-1.6-4.3v-10.3h2.6v10.1c0,1.3,0.3,2.3,0.9,2.9c0.6,0.6,1.5,0.9,2.8,0.9c2.5,0,3.7-1.3,3.7-3.9v-10.1L661.1,152.7
			L661.1,152.7z"/>
		<path class="st2" d="M671.9,168.6h-2.6v-13.7h-4.7v-2.2h12v2.2h-4.7L671.9,168.6L671.9,168.6z"/>
		<path class="st2" d="M680.1,168.6v-15.9h2.6v15.9H680.1z"/>
		<path class="st2" d="M702.2,160.6c0,2.6-0.7,4.6-2,6c-1.3,1.4-3.1,2.2-5.5,2.2c-2.4,0-4.3-0.7-5.5-2.1c-1.3-1.4-1.9-3.5-1.9-6.1
			c0-2.6,0.7-4.7,2-6.1c1.3-1.4,3.1-2.1,5.6-2.1c2.4,0,4.2,0.7,5.5,2.1C701.5,156,702.2,158,702.2,160.6z M690,160.6
			c0,2,0.4,3.4,1.2,4.5c0.8,1,2,1.5,3.5,1.5c1.5,0,2.7-0.5,3.5-1.5c0.8-1,1.2-2.5,1.2-4.5c0-2-0.4-3.4-1.2-4.4c-0.8-1-2-1.5-3.5-1.5
			c-1.6,0-2.7,0.5-3.5,1.5C690.4,157.2,690,158.7,690,160.6z"/>
		<path class="st2" d="M720,168.6h-3.2l-7.8-12.7h-0.1l0.1,0.7c0.1,1.4,0.2,2.6,0.2,3.7v8.3h-2.4v-15.9h3.2l7.8,12.6h0.1
			c0-0.2,0-0.8-0.1-1.8c0-1.1-0.1-1.9-0.1-2.5v-8.4h2.4L720,168.6L720,168.6z"/>
		<path class="st2" d="M734.5,164.3c0,1.4-0.5,2.5-1.5,3.3c-1,0.8-2.4,1.2-4.2,1.2s-3.3-0.3-4.4-0.8v-2.5c0.7,0.3,1.5,0.6,2.3,0.8
			c0.8,0.2,1.6,0.3,2.3,0.3c1,0,1.8-0.2,2.3-0.6c0.5-0.4,0.7-0.9,0.7-1.6c0-0.6-0.2-1.1-0.7-1.5c-0.5-0.4-1.4-0.9-2.8-1.5
			c-1.5-0.6-2.5-1.3-3.1-2c-0.6-0.8-0.9-1.7-0.9-2.7c0-1.3,0.5-2.4,1.4-3.1c0.9-0.8,2.2-1.1,3.8-1.1c1.5,0,3,0.3,4.6,1l-0.8,2.1
			c-1.4-0.6-2.7-0.9-3.8-0.9c-0.8,0-1.5,0.2-1.9,0.5c-0.4,0.4-0.7,0.8-0.7,1.5c0,0.4,0.1,0.8,0.3,1.1c0.2,0.3,0.5,0.6,0.9,0.8
			c0.4,0.3,1.1,0.6,2.2,1c1.2,0.5,2,0.9,2.6,1.4c0.5,0.4,0.9,0.9,1.2,1.4C734.4,162.9,734.5,163.6,734.5,164.3z"/>
	</g>
</g>
</svg>
