<?xml version="1.0" encoding="utf-8"?>
<!-- Generator: Adobe Illustrator 24.0.1, SVG Export Plug-In . SVG Version: 6.00 Build 0)  -->
<svg version="1.1" id="Layer_1" xmlns="http://www.w3.org/2000/svg" xmlns:xlink="http://www.w3.org/1999/xlink" x="0px" y="0px"
	 viewBox="0 0 738 147" style="enable-background:new 0 0 738 147;" xml:space="preserve">
<style type="text/css">
	.st0{fill:#27A3A0;}
	.st1{fill:#B1C8D2;}
	.st2{fill:#3F5D7D;}
</style>
<g>
	<g>
		<path class="st0" d="M90.1,136H41.4V98.1H3.5V49.4h37.8V11.5h48.8v48.8H52.3v26.9h53c17.9,0,32.4-14.5,32.4-32.4
			s-14.5-32.4-32.4-32.4h-8.5V11.5h8.5c23.9,0,43.3,19.4,43.3,43.3s-19.4,43.3-43.3,43.3H90.1V136z M52.3,125h26.9V98.1H52.3V125z
			 M14.5,87.2h26.9V60.3H14.5V87.2z M52.3,49.4h26.9V22.5H52.3V49.4z"/>
		<polygon class="st1" points="178,98.4 179.4,143.1 180.7,98.4 180.7,48.6 179.4,3.9 178,48.6 		"/>
	</g>
	<g>
		<g>
			<path class="st2" d="M245.8,29.6c0,5.3-1.7,9.3-4.9,12.1c-3.3,2.8-8,4.2-14.1,4.2h-4.5v17.5h-10.4v-49h15.7
				c5.9,0,10.5,1.3,13.6,3.8C244.2,20.8,245.8,24.6,245.8,29.6z M222.3,37.4h3.4c3.2,0,5.6-0.6,7.2-1.9c1.6-1.3,2.4-3.1,2.4-5.5
				s-0.7-4.2-2-5.4c-1.3-1.2-3.4-1.7-6.2-1.7h-4.7L222.3,37.4L222.3,37.4z"/>
			<path class="st2" d="M265.4,44.6v18.8H255v-49h14.3c6.7,0,11.6,1.2,14.8,3.6c3.2,2.4,4.8,6.1,4.8,11c0,2.9-0.8,5.5-2.4,7.7
				c-1.6,2.3-3.8,4-6.7,5.3c7.4,11,12.2,18.1,14.4,21.4h-11.5L271,44.6H265.4z M265.4,36.1h3.4c3.3,0,5.7-0.5,7.3-1.6
				c1.6-1.1,2.3-2.8,2.3-5.2c0-2.3-0.8-4-2.4-5s-4.1-1.5-7.4-1.5h-3.1L265.4,36.1L265.4,36.1z"/>
			<path class="st2" d="M328.6,63.4h-28.2v-49h28.2v8.5h-17.8v10.8h16.6v8.5h-16.6v12.6h17.8V63.4z"/>
			<path class="st2" d="M359.5,63.4L347.7,25h-0.3c0.4,7.8,0.6,13,0.6,15.7v22.7h-9.3v-49h14.1l11.6,37.5h0.2L377,14.4h14.1v49h-9.7
				V40.2c0-1.1,0-2.4,0.1-3.8c0-1.4,0.2-5.2,0.5-11.4h-0.3l-12.6,38.4H359.5z"/>
			<path class="st2" d="M403.5,63.4v-49h10.4v49H403.5z"/>
			<path class="st2" d="M454.5,63.4h-28.2v-49h28.2v8.5h-17.8v10.8h16.6v8.5h-16.6v12.6h17.8V63.4z"/>
			<path class="st2" d="M475.1,44.6v18.8h-10.4v-49H479c6.7,0,11.6,1.2,14.8,3.6c3.2,2.4,4.8,6.1,4.8,11c0,2.9-0.8,5.5-2.4,7.7
				c-1.6,2.3-3.8,4-6.7,5.3c7.4,11,12.2,18.1,14.4,21.4h-11.5l-11.7-18.8H475.1z M475.1,36.1h3.4c3.3,0,5.7-0.5,7.3-1.6
				c1.6-1.1,2.3-2.8,2.3-5.2c0-2.3-0.8-4-2.4-5s-4.1-1.5-7.4-1.5h-3.1L475.1,36.1L475.1,36.1z"/>
			<path class="st2" d="M252.1,132h-10.4v-21.2h-19.4V132h-10.4V83h10.4v19.2h19.4V83h10.4V132z"/>
			<path class="st2" d="M292.7,132h-28.2V83h28.2v8.5h-17.8v10.8h16.6v8.5h-16.6v12.6h17.8V132z"/>
			<path class="st2" d="M332.9,132l-3.6-11.7h-17.9l-3.6,11.7h-11.2L314,82.8h12.7l17.4,49.2H332.9z M326.8,111.6
				c-3.3-10.6-5.1-16.5-5.5-17.9s-0.7-2.5-0.9-3.3c-0.7,2.9-2.8,9.9-6.3,21.2H326.8z"/>
			<path class="st2" d="M350.2,132V83h10.4v40.4h19.9v8.6H350.2z"/>
			<path class="st2" d="M407.9,132h-10.4V91.6h-13.3v-8.7h37v8.7h-13.3L407.9,132L407.9,132z"/>
			<path class="st2" d="M468.9,132h-10.4v-21.2h-19.4V132h-10.4V83h10.4v19.2h19.4V83h10.4V132L468.9,132z"/>
			<path class="st2" d="M517.7,104.5h19.4v25.4c-3.1,1-6.1,1.7-8.9,2.2c-2.8,0.4-5.6,0.6-8.5,0.6c-7.4,0-13-2.2-16.9-6.5
				c-3.9-4.3-5.9-10.6-5.9-18.7c0-7.9,2.3-14.1,6.8-18.5s10.8-6.6,18.8-6.6c5,0,9.9,1,14.5,3l-3.4,8.3c-3.6-1.8-7.3-2.7-11.2-2.7
				c-4.5,0-8.1,1.5-10.8,4.5s-4.1,7.1-4.1,12.2c0,5.3,1.1,9.4,3.3,12.2c2.2,2.8,5.3,4.2,9.5,4.2c2.2,0,4.4-0.2,6.6-0.7v-10.2h-9.3
				L517.7,104.5L517.7,104.5z"/>
			<path class="st2" d="M559.2,113.2V132h-10.4V83h14.3c6.7,0,11.6,1.2,14.8,3.6s4.8,6.1,4.8,11c0,2.9-0.8,5.5-2.4,7.7
				c-1.6,2.3-3.8,4-6.7,5.3c7.4,11,12.2,18.1,14.4,21.4h-11.5l-11.7-18.8H559.2z M559.2,104.8h3.4c3.3,0,5.7-0.5,7.3-1.6
				s2.3-2.8,2.3-5.2c0-2.3-0.8-4-2.4-5c-1.6-1-4.1-1.5-7.4-1.5h-3.1L559.2,104.8L559.2,104.8z"/>
			<path class="st2" d="M638.6,107.4c0,8.1-2,14.3-6,18.7c-4,4.4-9.8,6.5-17.3,6.5s-13.3-2.2-17.3-6.5c-4-4.4-6-10.6-6-18.8
				s2-14.4,6-18.7c4-4.3,9.8-6.5,17.3-6.5s13.3,2.2,17.3,6.5C636.6,93.1,638.6,99.3,638.6,107.4z M602.9,107.4c0,5.5,1,9.6,3.1,12.4
				s5.2,4.2,9.3,4.2c8.3,0,12.4-5.5,12.4-16.5s-4.1-16.6-12.4-16.6c-4.1,0-7.2,1.4-9.4,4.2C603.9,97.8,602.9,102,602.9,107.4z"/>
			<path class="st2" d="M688.7,83v31.7c0,3.6-0.8,6.8-2.4,9.5s-4,4.8-7,6.3c-3.1,1.5-6.7,2.2-10.9,2.2c-6.3,0-11.2-1.6-14.7-4.8
				c-3.5-3.2-5.2-7.7-5.2-13.3V83h10.4v30c0,3.8,0.8,6.5,2.3,8.3s4,2.6,7.5,2.6c3.4,0,5.9-0.9,7.4-2.7c1.5-1.8,2.3-4.6,2.3-8.4V83
				H688.7z"/>
			<path class="st2" d="M734.5,98.3c0,5.3-1.7,9.3-4.9,12.1c-3.3,2.8-8,4.2-14.1,4.2H711V132h-10.4V83h15.7c5.9,0,10.5,1.3,13.6,3.8
				C733,89.4,734.5,93.2,734.5,98.3z M711.1,106.1h3.4c3.2,0,5.6-0.6,7.2-1.9c1.6-1.3,2.4-3.1,2.4-5.5s-0.7-4.2-2-5.4
				c-1.3-1.2-3.4-1.7-6.2-1.7h-4.7v14.5H711.1z"/>
		</g>
	</g>
</g>
</svg>
